<svg xmlns="http://www.w3.org/2000/svg" viewBox="0 0 400 400"><defs><style>.a{font-size:45.59px;font-family:Temeraire-ItalienneItalic, Temeraire;font-style:italic;}</style></defs><text class="a" transform="translate(57.97 200.88) rotate(-82.69)">H</text><text class="a" transform="translate(62.89 165.48) rotate(-70.6)">o</text><text class="a" transform="matrix(0.54, -0.84, 0.84, 0.54, 69.79, 142.41)">w</text><text class="a" transform="translate(91.55 109.06) rotate(-44)">d</text><text class="a" transform="translate(111.74 89.29) rotate(-32.39)">y</text><text class="a" transform="translate(136.89 73.91) rotate(-23.43)">!</text><text class="a" transform="translate(150.57 67.99) rotate(-17.68)"> </text><text class="a" transform="translate(162.51 63.26) rotate(-8.47)">T</text><text class="a" transform="matrix(1, 0.04, -0.04, 1, 191.11, 58.8)">a</text><text class="a" transform="matrix(0.97, 0.24, -0.24, 0.97, 218.57, 59.64)">k</text><text class="a" transform="translate(246.64 66.56) rotate(24.41)">e</text><text class="a" transform="matrix(0.85, 0.53, -0.53, 0.85, 268.51, 76.82)"> </text><text class="a" transform="translate(279.79 83.03) rotate(40.55)">y</text><text class="a" transform="translate(301.99 102.14) rotate(51.42)">o</text><text class="a" transform="translate(317.27 120.6) rotate(62.15)">u</text><text class="a" transform="matrix(0.28, 0.96, -0.96, 0.28, 331.08, 146.82)">r</text><text class="a" transform="matrix(0.15, 0.99, -0.99, 0.15, 338.15, 172.05)"> </text><text class="a" transform="translate(340.35 184.95) rotate(88.22)">t</text><text class="a" transform="matrix(-0.1, 1, -1, -0.1, 340.93, 205.15)">i</text><text class="a" transform="translate(341.23 221.55) rotate(108.45)">m</text><text class="a" transform="translate(325.31 265.39) rotate(122.72)">e</text><text class="a" transform="translate(311.88 285.56) rotate(129.49)">.</text><text class="a" transform="matrix(-0.7, 0.72, -0.72, -0.7, 305.93, 292.94)"> </text><text class="a" transform="translate(297.58 302.71) rotate(142.97)">L</text><text class="a" transform="translate(272.82 321.18) rotate(154.23)">o</text><text class="a" transform="translate(251.46 331.69) rotate(163.96)">o</text><text class="a" transform="matrix(-0.99, 0.11, -0.11, -0.99, 230.87, 338.19)">k</text><text class="a" transform="translate(201.81 340.91) rotate(-177.94)"> </text><text class="a" transform="translate(188.9 341.06) rotate(-169.7)">a</text><text class="a" transform="translate(161.85 336.21) rotate(-158.8)">r</text><text class="a" transform="translate(138.77 327.43) rotate(-149.01)">o</text><text class="a" transform="matrix(-0.75, -0.67, 0.67, -0.75, 118.01, 315.46)">u</text><text class="a" transform="translate(95.75 296) rotate(-125.97)">n</text><text class="a" transform="translate(77.18 270.4) rotate(-113.83)">d</text><text class="a" transform="matrix(-0.26, -0.97, 0.97, -0.26, 65.23, 241.04)">.</text><text class="a" transform="translate(62.71 231.94) rotate(-100.2)"> </text></svg>